<svg width="21" height="20" viewBox="0 0 21 20" fill="none" xmlns="http://www.w3.org/2000/svg">
<path fill-rule="evenodd" clip-rule="evenodd" d="M4.27273 19.5454H0.454545V6.81811H4.27273V19.5454ZM2.5809 4.90901H2.5524C1.12415 4.90901 0.198296 3.9814 0.198296 2.75861C0.198296 1.51109 1.1514 0.585449 2.60784 0.585449C4.06459 0.585449 4.96069 1.49845 4.98888 2.74629C4.98888 3.96939 4.0649 4.90901 2.5809 4.90901ZM20.1818 19.5454H15.7273V12.6641C15.7273 10.9527 15.1493 9.78533 13.6095 9.78533C12.4315 9.78533 11.727 10.5731 11.4201 11.3332C11.306 11.6051 11.2727 11.9847 11.2727 12.3643V19.5454H7.06547C7.06547 19.5454 7.12123 8.09083 7.06547 6.81811H11.2727V8.55034C11.9091 7.68337 12.9323 6.44649 15.1937 6.44649C17.996 6.44649 20.1818 8.26438 20.1818 12.1755V19.5454ZM11.2954 8.59074C11.3029 8.57884 11.3129 8.56443 11.323 8.55065V8.59074H11.2954Z" fill="white"/>
</svg>
