<svg style="display: none;" aria-hidden="true" xmlns="http://www.w3.org/2000/svg" xmlns:xlink="http://www.w3.org/1999/xlink"><symbol viewBox="0 0 30 30" fill="none" id="svg-2SL"><path d="M14.6573 0.010483C23.2105 -0.18217 30.2195 6.80366 29.9931 15.434C29.7866 23.3015 23.3311 30.0851 14.8213 29.9992C6.71312 29.9176 0.0442388 23.3475 0.00346375 14.9992C0.0529143 6.66307 6.68363 0.190986 14.6573 0.010483Z" fill="#323642"/><path fill-rule="evenodd" clip-rule="evenodd" d="M25.5703 16.8343C26.3649 16.2451 26.8473 15.4814 26.751 14.4522C26.6564 13.4429 26.1463 12.6923 25.2224 12.2818C24.2221 11.841 23.2652 11.965 22.4072 12.6662C22.3091 12.7461 22.2493 12.7495 22.1486 12.6836C20.5575 11.6344 18.8042 11.0469 16.9138 10.8551C16.7944 10.8429 16.6749 10.8304 16.5498 10.8173L16.5497 10.8172L16.2475 10.7857C16.499 10.0034 16.7463 9.23347 16.9929 8.46553L17.463 7.00207C17.496 7.00738 17.5268 7.01189 17.5561 7.01617C17.613 7.02449 17.6642 7.03197 17.7146 7.04286C17.9851 7.10102 18.2555 7.15972 18.526 7.21844L18.5261 7.21844L18.5261 7.21844L18.5261 7.21845L18.5261 7.21846C19.2202 7.36912 19.9147 7.51986 20.6113 7.6616C20.81 7.70239 20.9089 7.77182 20.9653 7.98182C21.2308 8.97459 22.2189 9.60722 23.2166 9.44668C24.5882 9.22539 25.3326 7.74752 24.668 6.56383C24.1362 5.61792 22.4844 5.05212 21.4199 6.29047C21.3158 6.41197 21.2273 6.4406 21.072 6.40676C20.1586 6.20632 19.2443 6.01187 18.3297 5.81737C17.9891 5.74493 17.6484 5.67247 17.3077 5.5997C16.7863 5.48775 16.5425 5.63094 16.382 6.14121C16.2312 6.61987 16.0801 7.09842 15.9291 7.57698L15.9291 7.5771L15.929 7.57722C15.6266 8.53538 15.3243 9.49354 15.0234 10.4525C14.9844 10.5774 14.9514 10.6677 14.784 10.6668C13.9372 10.6607 13.1027 10.7805 12.275 10.9558C10.7906 11.2699 9.41034 11.8305 8.15499 12.6871C8.04048 12.7652 7.9702 12.7339 7.86523 12.6853C7.7487 12.6314 7.63293 12.5739 7.51705 12.5163L7.51704 12.5163C7.20588 12.3618 6.89387 12.2068 6.5639 12.1195C4.99883 11.7047 3.14053 12.9769 3.46066 15.0674C3.58646 15.8893 4.07489 16.4837 4.74811 16.935C4.85916 17.0087 4.88345 17.0755 4.8635 17.197C4.67524 18.3278 4.79236 19.4247 5.24869 20.4799C5.89762 21.9804 7.01416 23.0651 8.37015 23.9208C9.91786 24.8979 11.6348 25.3926 13.4349 25.6191C15.0095 25.8161 16.5755 25.7414 18.1223 25.3926C20.3485 24.8901 22.3308 23.9347 23.8568 22.1843C25.0671 20.7958 25.6032 19.1817 25.3542 17.3402C25.3204 17.0946 25.3794 16.9757 25.5703 16.8343ZM20.2756 16.9107C20.2791 17.742 19.533 18.4857 18.694 18.4866C17.8213 18.4875 17.1073 17.7533 17.1064 16.8525C17.1055 16.029 17.8412 15.307 18.6854 15.3044C19.5546 15.3018 20.2721 16.0255 20.2756 16.9107ZM19.0688 21.5013C19.251 21.2905 19.2042 21.0397 19.0367 20.8739C18.8042 20.6431 18.504 20.5789 18.2707 20.7125C18.2184 20.7425 18.1686 20.7766 18.1188 20.8106L18.1188 20.8106L18.1188 20.8106C18.0793 20.8376 18.0398 20.8646 17.9991 20.8895C16.3915 21.8667 14.712 22.0186 12.9717 21.2948C12.7045 21.1836 12.4534 21.032 12.203 20.8808L12.203 20.8808C12.1192 20.8302 12.0356 20.7797 11.9514 20.7307C11.7016 20.5849 11.3875 20.6361 11.1481 20.8783C10.9902 21.0371 10.9702 21.3104 11.1281 21.5343C11.2175 21.6602 11.338 21.7738 11.4647 21.8624C12.5526 22.626 13.7759 22.9445 15.1909 22.961C15.2353 22.9577 15.2879 22.9543 15.3463 22.9504C15.4899 22.9409 15.6687 22.9291 15.8476 22.9124C16.7273 22.8317 17.5662 22.6 18.3253 22.1435C18.6021 21.9752 18.8554 21.7461 19.0688 21.5013ZM13.0922 16.9072C13.0957 17.7108 12.3401 18.4849 11.5515 18.4866C10.657 18.4883 9.91353 17.7689 9.91092 16.8994C9.90919 16.0394 10.6371 15.3052 11.4916 15.3052C12.3574 15.3044 13.0888 16.0359 13.0922 16.9072Z" fill="#fff"/></symbol><symbol viewBox="0 0 14 28" fill="none" id="svg-facebook"><path d="M9.08275 28V15.2285H13.2113L13.8275 10.2505H9.08275V7.07678C9.08275 5.63071 9.46479 4.65813 11.4613 4.65813H14V0.191956C13.5563 0.127971 12.0528 0 10.3028 0C6.64261 0 4.14084 2.31627 4.14084 6.5777V10.2505H0V15.2285H4.14084V28H9.08275Z" fill="#323642"/></symbol><symbol viewBox="0 0 34 22" fill="none" id="svg-google"><path fill-rule="evenodd" clip-rule="evenodd" d="M21.0476 9.56075C21.1488 10.1776 21.25 10.7944 21.25 11.4112C21.25 14.5981 20.3393 17.1682 18.3155 19.0187C16.3929 20.972 13.9643 22 10.8274 22C7.79167 22 5.2619 20.972 3.1369 18.8131C1.0119 16.6542 0 14.0841 0 11C0 7.91589 1.0119 5.34579 3.1369 3.18692C5.2619 1.02804 7.79167 0 10.8274 0C13.6607 0 16.0893 0.925234 18.1131 2.8785L15.1786 5.75701C14.0655 4.62617 12.5476 4.11215 10.8274 4.11215C9.00595 4.11215 7.3869 4.83178 6.07143 6.16822C4.75595 7.60748 4.04762 9.25234 4.04762 11.1028C4.04762 13.0561 4.75595 14.7009 6.07143 16.0374C7.3869 17.3738 9.00595 18.0935 10.8274 18.0935C12.3452 18.0935 13.6607 17.6822 14.875 16.8598C16.0893 15.9346 16.7976 14.8037 17 13.3645H10.8274V9.56075H21.0476ZM34 12.7477H30.9643V15.9346H27.8274V12.7477H24.6905V9.56075H27.8274V6.37383H30.9643V9.56075H34V12.7477Z" fill="#323642"/></symbol><symbol viewBox="0 0 28 28" fill="none" id="svg-linkedin"><path fill-rule="evenodd" clip-rule="evenodd" d="M26.2713 0H2.24698C1.09656 0 0 0.781151 0 1.89681V26.0458C0 27.1614 1.09687 28 2.24698 28H26.2713C27.4217 28 28 27.1611 28 26.0458V1.89681C28 0.781464 27.4217 0 26.2713 0Z" fill="#323642"/><path fill-rule="evenodd" clip-rule="evenodd" d="M8.27273 23.5454H4.45454V10.8181H8.27273V23.5454ZM6.5809 8.90901H6.5524C5.12415 8.90901 4.1983 7.9814 4.1983 6.75861C4.1983 5.51109 5.1514 4.58545 6.60784 4.58545C8.06459 4.58545 8.96069 5.49845 8.98888 6.74629C8.98888 7.96939 8.0649 8.90901 6.5809 8.90901ZM24.1818 23.5454H19.7273V16.6641C19.7273 14.9527 19.1493 13.7853 17.6095 13.7853C16.4315 13.7853 15.727 14.5731 15.4201 15.3332C15.306 15.6051 15.2727 15.9847 15.2727 16.3643V23.5454H11.0655C11.0655 23.5454 11.1212 12.0908 11.0655 10.8181H15.2727V12.5503C15.9091 11.6834 16.9323 10.4465 19.1937 10.4465C21.996 10.4465 24.1818 12.2644 24.1818 16.1755V23.5454ZM15.2954 12.5907C15.3029 12.5788 15.3129 12.5644 15.323 12.5507V12.5907H15.2954Z" fill="#fff"/></symbol><symbol viewBox="0 0 28 23" fill="none" id="svg-twitter"><path d="M28 2.72126C26.9694 3.18305 25.8637 3.49623 24.7019 3.63604C25.8881 2.91766 26.7962 1.77821 27.2266 0.424635C26.1138 1.0899 24.8855 1.57297 23.5768 1.83484C22.5287 0.704224 21.038 0 19.3845 0C16.2124 0 13.6404 2.60097 13.6404 5.80706C13.6404 6.26177 13.6911 6.70588 13.7891 7.13056C9.01601 6.88812 4.78357 4.57558 1.95085 1.06159C1.45568 1.91798 1.17399 2.91586 1.17399 3.98105C1.17399 5.99638 2.18881 7.77459 3.72854 8.81494C2.78719 8.78311 1.90185 8.52124 1.12677 8.08597V8.15851C1.12677 10.9718 3.10741 13.3197 5.73365 13.8541C5.25248 13.985 4.74509 14.0576 4.22018 14.0576C3.84927 14.0576 3.49058 14.0204 3.13889 13.9497C3.87023 16.2587 5.99087 17.9378 8.50341 17.9838C6.53851 19.5409 4.06097 20.4663 1.36999 20.4663C0.906341 20.4663 0.449648 20.4379 0 20.3866C2.54229 22.0375 5.56048 23 8.80437 23C19.3706 23 25.1463 14.1496 25.1463 6.47413L25.1271 5.72216C26.2556 4.90819 27.2319 3.88551 28 2.72126Z" fill="#323642"/></symbol><symbol viewBox="0 0 42 29" fill="none" id="svg-youtube"><path fill-rule="evenodd" clip-rule="evenodd" d="M41.4286 6.19495C41.4286 2.77341 38.657 0 35.2373 0H6.19127C2.77157 0 0 2.77341 0 6.19495V22.805C0 26.2266 2.77157 29 6.19127 29H35.2373C38.657 29 41.4286 26.2266 41.4286 22.805V6.19495V6.19495Z" fill="#323642"/><path fill-rule="evenodd" clip-rule="evenodd" d="M16.5714 22.602V7L28.4025 14.801L16.5714 22.602Z" fill="#fff"/></symbol></svg>