<svg width="60" height="59" viewBox="0 0 60 59" fill="none" xmlns="http://www.w3.org/2000/svg">
<path d="M44.0632 32.1186V32.3498L44.1646 32.5575L48.0926 40.5998L48.0932 40.6009C48.2243 40.8686 48.2082 41.1849 48.0505 41.4379C47.8929 41.6908 47.616 41.8446 47.3179 41.8448H35.8094H34.8094V42.8448V43.0265C34.8094 45.7733 32.5827 48 29.836 48C27.0892 48 24.8625 45.7733 24.8625 43.0265V42.8448V41.8448H23.8625H12.3634C12.0653 41.8446 11.7884 41.6908 11.6307 41.4379C11.4731 41.1849 11.457 40.8686 11.5881 40.6009L11.5887 40.5998L15.5166 32.5575L15.6181 32.3498V32.1186V24.4444H15.6181L15.618 24.4334C15.5541 18.6307 19.0992 13.3979 24.512 11.3055L24.5197 11.3025L24.5266 11.2997L24.5269 11.2996L24.5269 11.2996L24.5271 11.2995L24.5274 11.2994L24.5305 11.2981L24.5494 11.2907C24.5672 11.2837 24.5951 11.2728 24.6325 11.2587C24.7072 11.2303 24.8196 11.1887 24.9639 11.1383C25.2531 11.0374 25.6685 10.9018 26.1657 10.7661C27.1704 10.4918 28.4638 10.2299 29.7093 10.2299C30.9584 10.2299 32.3207 10.4931 33.3987 10.7699C33.9316 10.9068 34.3823 11.0436 34.6984 11.1457C34.8562 11.1968 34.9798 11.2389 35.0627 11.2678C35.1042 11.2823 35.1354 11.2934 35.1555 11.3007L35.1725 11.3069C40.5405 13.454 44.0618 18.6527 44.0632 24.4351C44.0632 24.4352 44.0632 24.4353 44.0632 24.4354V32.1186Z" stroke="#46B843" stroke-width="2"/>
<mask id="path-2-outside-1_0_59" maskUnits="userSpaceOnUse" x="14.0714" y="41.1429" width="31" height="2" fill="black">
<rect fill="white" x="14.0714" y="41.1429" width="31" height="2"/>
<path d="M15.3571 42.2679H43.9286Z"/>
</mask>
<path d="M15.3571 41.4679H14.5571V43.0679H15.3571V41.4679ZM43.9286 43.0679H44.7286V41.4679H43.9286V43.0679ZM15.3571 43.0679H43.9286V41.4679H15.3571V43.0679Z" fill="#46B843" mask="url(#path-2-outside-1_0_59)"/>
</svg>
